# xmcd
#
# Track frame offsets:
#	150
#	11817
#	21349
#	30098
#	40000
#	50400
#	62567
#	71336
#	81843
#	94283
#	103995
#	112369
#	121529
#	131623
#	142440
#	151980
#	159692
#	168376
#	179370
#	191050
#	201299
#	213384
#	224881
#
# Disc length: 3141 seconds
#
# Revision: 1
# Processed by: cddbd v1.4PL0 Copyright (c) Steve Scherf et al.
# Submitted via: audiograbber 1.80
#
DISCID=5a0c4317
DTITLE=Elvis Presley - One Night With Elvis
DYEAR=1900
DGENRE=
TTITLE0=One Night
TTITLE1=Don't Leave Me Now
TTITLE2=Baby I Don't Care
TTITLE3=Treat Me Nice
TTITLE4=I Want To Be Free
TTITLE5=I Need You So
TTITLE6=Hard Headed Woman
TTITLE7=Trouble
TTITLE8=Don't
TTITLE9=King Creole
TTITLE10=Crawfish
TTITLE11=New Orleans
TTITLE12=Lover Doll
TTITLE13=Young Dreams
TTITLE14=Don't Ask Me Why
TTITLE15=Dixieland Rock
TTITLE16=Santa Bring My Baby Back
TTITLE17=Santa Claus Is Back In Town
TTITLE18=Blue Moon
TTITLE19=I Want To Be Free
TTITLE20=I Want You,i Need You,i Love You
TTITLE21=I Was The One
TTITLE22=I'll Never Let You Go
EXTD=
EXTT0=
EXTT1=
EXTT2=
EXTT3=
EXTT4=
EXTT5=
EXTT6=
EXTT7=
EXTT8=
EXTT9=
EXTT10=
EXTT11=
EXTT12=
EXTT13=
EXTT14=
EXTT15=
EXTT16=
EXTT17=
EXTT18=
EXTT19=
EXTT20=
EXTT21=
EXTT22=
PLAYORDER=
